<svg width="22" height="26" fill="none" xmlns="http://www.w3.org/2000/svg"><g filter="url(#a)"><path d="M7.456 8.75v4.875c-.152-.145-2.155-2.047-2.352-2.121a1.559 1.559 0 0 0-1.683 2.526l5.942 6.338c.38.403.906.632 1.46.632h4.633c2.4 0 4-2 4-4V8.429" fill="#000"/><path d="M7.456 8.75v4.875c-.152-.145-2.155-2.047-2.352-2.121a1.559 1.559 0 0 0-1.683 2.526l5.942 6.338c.38.403.906.632 1.46.632h4.633c2.4 0 4-2 4-4V8.429" stroke="#fff" stroke-linecap="round" stroke-linejoin="round"/><path d="M16.456 9v-.571c0-2.286 3-2.286 3 0m-6 .571V7.286c0-2.286 3-2.286 3 0V9m-6 0V6.5c0-2.286 3-2.286 3 0V9m-6 4.571V2.5a1.5 1.5 0 0 1 3-.001V9" fill="#000"/><path d="M19.456 8.429c0-2.286-3-2.286-3 0V9 7.286c0-2.286-3-2.286-3 0V9 6.5c0-2.286-3-2.286-3 0V9 2.499a1.5 1.5 0 1 0-3 .001v11.071" stroke="#fff" stroke-linecap="round" stroke-linejoin="round"/></g><defs><filter id="a" x=".5" y=".5" width="21.456" height="25" filterUnits="userSpaceOnUse" color-interpolation-filters="sRGB"><feFlood flood-opacity="0" result="BackgroundImageFix"/><feColorMatrix in="SourceAlpha" values="0 0 0 0 0 0 0 0 0 0 0 0 0 0 0 0 0 0 127 0" result="hardAlpha"/><feOffset dy="2"/><feGaussianBlur stdDeviation="1"/><feComposite in2="hardAlpha" operator="out"/><feColorMatrix values="0 0 0 0 0 0 0 0 0 0 0 0 0 0 0 0 0 0 0.25 0"/><feBlend in2="BackgroundImageFix" result="effect1_dropShadow_1_34"/><feBlend in="SourceGraphic" in2="effect1_dropShadow_1_34" result="shape"/></filter></defs></svg>